<mxfile host="app.diagrams.net" modified="2021-02-15T15:27:56.586Z" agent="5.0 (Windows NT 10.0; Win64; x64) AppleWebKit/537.36 (KHTML, like Gecko) Chrome/88.0.4324.150 Safari/537.36" etag="-1wkXgFx9Dnm3mTkpcQa" version="14.3.2" type="github">
  <diagram id="Uzcuf5bfrxnd1UL3X2eg" name="Page-1">
    <mxGraphModel dx="2249" dy="794" grid="1" gridSize="10" guides="1" tooltips="1" connect="1" arrows="1" fold="1" page="1" pageScale="1" pageWidth="827" pageHeight="1169" math="0" shadow="0">
      <root>
        <mxCell id="0" />
        <mxCell id="1" parent="0" />
        <mxCell id="n0iRyQ2IhnDKpfTvuRq2-1" value="Page d&#39;accueil" style="rounded=0;whiteSpace=wrap;html=1;" vertex="1" parent="1">
          <mxGeometry x="340" y="340" width="220" height="120" as="geometry" />
        </mxCell>
        <mxCell id="n0iRyQ2IhnDKpfTvuRq2-2" value="Page de connexion" style="rounded=0;whiteSpace=wrap;html=1;" vertex="1" parent="1">
          <mxGeometry x="700" y="160" width="220" height="120" as="geometry" />
        </mxCell>
        <mxCell id="n0iRyQ2IhnDKpfTvuRq2-3" value="Page d&#39;inscription" style="rounded=0;whiteSpace=wrap;html=1;" vertex="1" parent="1">
          <mxGeometry x="700" y="340" width="220" height="120" as="geometry" />
        </mxCell>
        <mxCell id="n0iRyQ2IhnDKpfTvuRq2-4" value="Page d&#39;informations personnelles" style="rounded=0;whiteSpace=wrap;html=1;" vertex="1" parent="1">
          <mxGeometry x="700" y="524.5" width="220" height="120" as="geometry" />
        </mxCell>
        <mxCell id="n0iRyQ2IhnDKpfTvuRq2-5" value="Page de panier" style="rounded=0;whiteSpace=wrap;html=1;" vertex="1" parent="1">
          <mxGeometry x="-30" y="340" width="220" height="120" as="geometry" />
        </mxCell>
        <mxCell id="n0iRyQ2IhnDKpfTvuRq2-6" value="" style="endArrow=classic;html=1;entryX=1.009;entryY=0.158;entryDx=0;entryDy=0;entryPerimeter=0;" edge="1" parent="1" target="n0iRyQ2IhnDKpfTvuRq2-5">
          <mxGeometry width="50" height="50" relative="1" as="geometry">
            <mxPoint x="340" y="360" as="sourcePoint" />
            <mxPoint x="240" y="360" as="targetPoint" />
          </mxGeometry>
        </mxCell>
        <mxCell id="n0iRyQ2IhnDKpfTvuRq2-7" value="bouton consulter panier" style="text;html=1;align=center;verticalAlign=middle;resizable=0;points=[];autosize=1;" vertex="1" parent="1">
          <mxGeometry x="200" y="330" width="140" height="20" as="geometry" />
        </mxCell>
        <mxCell id="n0iRyQ2IhnDKpfTvuRq2-8" value="" style="endArrow=classic;html=1;exitX=1.023;exitY=0.833;exitDx=0;exitDy=0;exitPerimeter=0;" edge="1" parent="1" source="n0iRyQ2IhnDKpfTvuRq2-5">
          <mxGeometry width="50" height="50" relative="1" as="geometry">
            <mxPoint x="290" y="490" as="sourcePoint" />
            <mxPoint x="340" y="440" as="targetPoint" />
          </mxGeometry>
        </mxCell>
        <mxCell id="n0iRyQ2IhnDKpfTvuRq2-9" value="bouton accueil" style="text;html=1;align=center;verticalAlign=middle;resizable=0;points=[];autosize=1;" vertex="1" parent="1">
          <mxGeometry x="215" y="420" width="90" height="20" as="geometry" />
        </mxCell>
        <mxCell id="n0iRyQ2IhnDKpfTvuRq2-10" value="" style="endArrow=classic;html=1;entryX=1.018;entryY=0.183;entryDx=0;entryDy=0;entryPerimeter=0;exitX=-0.005;exitY=0.408;exitDx=0;exitDy=0;exitPerimeter=0;" edge="1" parent="1" source="n0iRyQ2IhnDKpfTvuRq2-2" target="n0iRyQ2IhnDKpfTvuRq2-1">
          <mxGeometry width="50" height="50" relative="1" as="geometry">
            <mxPoint x="700" y="230" as="sourcePoint" />
            <mxPoint x="640" y="320" as="targetPoint" />
          </mxGeometry>
        </mxCell>
        <mxCell id="n0iRyQ2IhnDKpfTvuRq2-11" value="" style="endArrow=classic;html=1;entryX=1;entryY=0.5;entryDx=0;entryDy=0;exitX=0;exitY=0.5;exitDx=0;exitDy=0;" edge="1" parent="1" source="n0iRyQ2IhnDKpfTvuRq2-3" target="n0iRyQ2IhnDKpfTvuRq2-1">
          <mxGeometry width="50" height="50" relative="1" as="geometry">
            <mxPoint x="590" y="450" as="sourcePoint" />
            <mxPoint x="640" y="400" as="targetPoint" />
          </mxGeometry>
        </mxCell>
        <mxCell id="n0iRyQ2IhnDKpfTvuRq2-12" value="" style="endArrow=classic;html=1;entryX=0.5;entryY=0;entryDx=0;entryDy=0;" edge="1" parent="1" target="n0iRyQ2IhnDKpfTvuRq2-3">
          <mxGeometry width="50" height="50" relative="1" as="geometry">
            <mxPoint x="810" y="280" as="sourcePoint" />
            <mxPoint x="860" y="230" as="targetPoint" />
          </mxGeometry>
        </mxCell>
        <mxCell id="n0iRyQ2IhnDKpfTvuRq2-13" value="" style="endArrow=classic;html=1;entryX=-0.005;entryY=0.192;entryDx=0;entryDy=0;entryPerimeter=0;" edge="1" parent="1" target="n0iRyQ2IhnDKpfTvuRq2-2">
          <mxGeometry width="50" height="50" relative="1" as="geometry">
            <mxPoint x="560" y="340" as="sourcePoint" />
            <mxPoint x="690" y="180" as="targetPoint" />
          </mxGeometry>
        </mxCell>
        <mxCell id="n0iRyQ2IhnDKpfTvuRq2-14" value="bouton connexion" style="text;html=1;align=center;verticalAlign=middle;resizable=0;points=[];autosize=1;" vertex="1" parent="1">
          <mxGeometry x="530" y="210" width="110" height="20" as="geometry" />
        </mxCell>
        <mxCell id="n0iRyQ2IhnDKpfTvuRq2-15" value="pas de compte ?" style="text;html=1;align=center;verticalAlign=middle;resizable=0;points=[];autosize=1;" vertex="1" parent="1">
          <mxGeometry x="820" y="300" width="100" height="20" as="geometry" />
        </mxCell>
        <mxCell id="n0iRyQ2IhnDKpfTvuRq2-16" value="valider inscription" style="text;html=1;align=center;verticalAlign=middle;resizable=0;points=[];autosize=1;" vertex="1" parent="1">
          <mxGeometry x="570" y="370" width="110" height="20" as="geometry" />
        </mxCell>
        <mxCell id="n0iRyQ2IhnDKpfTvuRq2-17" value="bouton accueil" style="text;html=1;align=center;verticalAlign=middle;resizable=0;points=[];autosize=1;" vertex="1" parent="1">
          <mxGeometry x="625" y="290" width="90" height="20" as="geometry" />
        </mxCell>
        <mxCell id="n0iRyQ2IhnDKpfTvuRq2-18" value="" style="endArrow=classic;html=1;exitX=-0.005;exitY=0.846;exitDx=0;exitDy=0;exitPerimeter=0;entryX=0.645;entryY=1.033;entryDx=0;entryDy=0;entryPerimeter=0;" edge="1" parent="1" source="n0iRyQ2IhnDKpfTvuRq2-4" target="n0iRyQ2IhnDKpfTvuRq2-1">
          <mxGeometry width="50" height="50" relative="1" as="geometry">
            <mxPoint x="640" y="585" as="sourcePoint" />
            <mxPoint x="490" y="475" as="targetPoint" />
          </mxGeometry>
        </mxCell>
        <mxCell id="n0iRyQ2IhnDKpfTvuRq2-19" value="bouton accueil" style="text;html=1;align=center;verticalAlign=middle;resizable=0;points=[];autosize=1;" vertex="1" parent="1">
          <mxGeometry x="520" y="560" width="90" height="20" as="geometry" />
        </mxCell>
        <mxCell id="n0iRyQ2IhnDKpfTvuRq2-20" value="" style="endArrow=classic;html=1;entryX=0;entryY=0.5;entryDx=0;entryDy=0;exitX=0.9;exitY=1.033;exitDx=0;exitDy=0;exitPerimeter=0;" edge="1" parent="1" source="n0iRyQ2IhnDKpfTvuRq2-1" target="n0iRyQ2IhnDKpfTvuRq2-4">
          <mxGeometry width="50" height="50" relative="1" as="geometry">
            <mxPoint x="530" y="480" as="sourcePoint" />
            <mxPoint x="580" y="430" as="targetPoint" />
          </mxGeometry>
        </mxCell>
        <mxCell id="n0iRyQ2IhnDKpfTvuRq2-21" value="bouton mon compte -&amp;gt; mes informations personnellels" style="text;html=1;align=center;verticalAlign=middle;resizable=0;points=[];autosize=1;" vertex="1" parent="1">
          <mxGeometry x="580" y="480" width="300" height="20" as="geometry" />
        </mxCell>
        <mxCell id="n0iRyQ2IhnDKpfTvuRq2-22" value="Page commandes passées" style="rounded=0;whiteSpace=wrap;html=1;" vertex="1" parent="1">
          <mxGeometry x="-20" y="550" width="220" height="120" as="geometry" />
        </mxCell>
        <mxCell id="n0iRyQ2IhnDKpfTvuRq2-23" value="" style="endArrow=classic;html=1;" edge="1" parent="1">
          <mxGeometry width="50" height="50" relative="1" as="geometry">
            <mxPoint x="340" y="460" as="sourcePoint" />
            <mxPoint x="200" y="580" as="targetPoint" />
          </mxGeometry>
        </mxCell>
        <mxCell id="n0iRyQ2IhnDKpfTvuRq2-24" value="bouton mon compte -&amp;gt; mes commandes passées" style="text;html=1;align=center;verticalAlign=middle;resizable=0;points=[];autosize=1;" vertex="1" parent="1">
          <mxGeometry x="-30" y="504.5" width="280" height="20" as="geometry" />
        </mxCell>
        <mxCell id="n0iRyQ2IhnDKpfTvuRq2-25" value="" style="endArrow=classic;html=1;exitX=1.005;exitY=0.675;exitDx=0;exitDy=0;exitPerimeter=0;" edge="1" parent="1" source="n0iRyQ2IhnDKpfTvuRq2-22">
          <mxGeometry width="50" height="50" relative="1" as="geometry">
            <mxPoint x="210" y="620" as="sourcePoint" />
            <mxPoint x="390" y="460" as="targetPoint" />
          </mxGeometry>
        </mxCell>
        <mxCell id="n0iRyQ2IhnDKpfTvuRq2-26" value="bouton accueil" style="text;html=1;align=center;verticalAlign=middle;resizable=0;points=[];autosize=1;" vertex="1" parent="1">
          <mxGeometry x="280" y="565" width="90" height="20" as="geometry" />
        </mxCell>
      </root>
    </mxGraphModel>
  </diagram>
</mxfile>
